<?xml version="1.0" encoding="utf-8"?>
<!-- Generator: Adobe Illustrator 24.0.1, SVG Export Plug-In . SVG Version: 6.00 Build 0)  -->
<!DOCTYPE svg PUBLIC "-//W3C//DTD SVG 1.1//EN" "http://www.w3.org/Graphics/SVG/1.1/DTD/svg11.dtd" [
	<!ENTITY ns_extend "http://ns.adobe.com/Extensibility/1.0/">
	<!ENTITY ns_ai "http://ns.adobe.com/AdobeIllustrator/10.0/">
	<!ENTITY ns_graphs "http://ns.adobe.com/Graphs/1.0/">
	<!ENTITY ns_vars "http://ns.adobe.com/Variables/1.0/">
	<!ENTITY ns_imrep "http://ns.adobe.com/ImageReplacement/1.0/">
	<!ENTITY ns_sfw "http://ns.adobe.com/SaveForWeb/1.0/">
	<!ENTITY ns_custom "http://ns.adobe.com/GenericCustomNamespace/1.0/">
	<!ENTITY ns_adobe_xpath "http://ns.adobe.com/XPath/1.0/">
]>
<svg version="1.1" xmlns:x="&ns_extend;" xmlns:i="&ns_ai;" xmlns:graph="&ns_graphs;"
	 xmlns="http://www.w3.org/2000/svg" xmlns:xlink="http://www.w3.org/1999/xlink" x="0px" y="0px" viewBox="0 0 1100 800"
	 style="enable-background:new 0 0 1100 800;" xml:space="preserve">
<style type="text/css">
	.st0{fill:transparent;}
	.st1{fill:#F7F7F7;}
	.st2{fill:#BCBEC0;}
	.st3{fill:#305399;}
	.st4{fill:#587BC9;}
	.st5{fill:#B97262;}
	.st6{fill:#3B455A;}
	.st7{fill:#EFBFA5;}
	.st8{fill:#7DB5DB;}
	.st9{fill:#2F3849;}
	.st10{opacity:0.13;fill:#6D6E6F;}
	.st11{fill:#707F78;}
	.st12{fill:#292949;}
	.st13{fill:#D3E5EF;}
</style>
<metadata>
	<sfw  xmlns="&ns_sfw;">
		<slices></slices>
		<sliceSourceBounds  bottomLeftOrigin="true" height="800" width="1100" x="-542.69" y="4643.39"></sliceSourceBounds>
	</sfw>
</metadata>
<g id="background">
	<rect x="0" y="0" class="st0" width="1100" height="800"/>
</g>
<g id="shadow">
	<g>
		<path class="st1" d="M517.33,674.26c-27.35,0.07-54.7,0.67-82,3.44c-10.29,1.04-20.37,3.33-30.69,4.26
			c-20.61,1.85-40.85,5.29-61.53,6.88c-16.65,1.28-33.38,2.03-49.99,3.66c-15.57,1.52-32.81,1.17-48.26-1.34
			c-11.44-1.86-22.93-2.91-34.17-5.9c-12.58-3.35-26.25-5.74-39.35-5.65c-18.69,0.12-36.89,0.14-54.78,6.04
			c-6.28,2.07-13.97,5.48-18.73,9.83c-10.91,9.96-12.39,34.82-1.49,45.15c18.36,17.39,57.53,24.21,83.26,24.53
			c28.19,0.35,55.58-1.55,83.82-2.67c26.24-1.04,52.41-2.52,78.69-2.47c53.68,0.11,107.36,0,160.94-3.26
			c50.34-3.07,100.8-2.01,151.25-2.01c51.73,0,103.12,0.37,154.48,6.63c22.38,2.73,45.18,3.68,67.67,5.59
			c20.14,1.71,39.5-0.03,59.56-1.61c16.85-1.33,33.58-5.27,48.89-11.92c12.11-5.27,33.71-21.64,37.43-34.22
			c10.42-35.26-146.78-34.41-170.92-34.34c-27,0.09-54.21,0.9-81.19-0.04c-11.35-0.39-22.53-2.41-33.61-4.63
			c-11.03-2.2-22.15-1.64-33.34-2.57c-46.66-3.86-93.41-3.3-140.22-3.3C547.81,674.34,532.57,674.22,517.33,674.26z"/>
	</g>
</g>
<g id="object">
	<g>
		<g>
			<polygon class="st2" points="979.61,531.35 975.06,616.03 966.56,730.35 953.84,731.26 938.39,627.43 917.02,539.57 			"/>
			<polygon class="st3" points="954.3,736.61 968.54,742.51 974.92,735.15 967.56,728.76 953.81,729.74 			"/>
		</g>
		<g>
			<polygon class="st2" points="882.15,525.01 879.35,575.83 887.63,726.94 900.37,727.58 919.45,628.47 936.28,519.78 			"/>
			<polygon class="st3" points="900.02,729.96 885.91,736.16 879.37,731.91 886.6,725.37 900.37,726.06 			"/>
		</g>
		<g>
			<path class="st4" d="M951.3,368.93l-39.87-2.62c0,0-21.99,3.27-34.81,56.33c-7.13,29.52-7.77,75.6-6.94,110.67
				c1.14,4.96,7.49,26.63,30.37,21.97c39.29-8.01,60.07-15.26,77.43-12.78c14.8,2.58,12.73-17.56,10.48-32.91l-7.81-47.46
				L951.3,368.93z"/>
		</g>
		<g>
			<path class="st5" d="M941.6,319.84c-10.1-1.79-20.48-3.34-30.41-0.95c-2.18,0.52-4.5,1.39-5.61,3.33
				c-0.43,0.75-0.64,1.61-0.83,2.46c-2.14,9.5-4.77,23.56,1.77,31.96c1.25,1.6,2.89,2.85,4.63,3.84c2.33,1.33,4.89,2.19,7.52,2.6
				c-0.44,2.36-1.1,4.68-1.96,6.92c2.43,3.36,13.13,3.33,14.97-0.06c-0.01-2.87-0.02-5.74-0.02-8.61c1.28-0.58,2.51-1.27,3.66-2.1
				c4.44-3.2,7.26-7.88,8.8-13.06c1.67-5.64,4.13-11.03,5.64-16.77c0.55-2.09,0.95-4.47-0.21-6.29c-1.24-1.94-3.76-2.51-6.03-2.92
				C942.88,320.07,942.24,319.95,941.6,319.84z"/>
			<path class="st6" d="M908.52,326.58c4.81-3.38,12.18-5.06,16.84-4.91c14.1,0.44,19.68,10.55,20.96,23.45
				c3.67-5.08,10.68-11.57,10.86-17.93c0.15-5.2-0.86-12.24-3.95-16.6c-2.89-4.08-9.94-6.09-14.17-8.35
				c-3.99-2.13-7.98-4.26-11.97-6.38c-0.83-0.44-1.68-0.89-2.62-1.02c-1.1-0.15-2.21,0.18-3.27,0.5
				c-9.11,2.76-18.22,5.52-27.33,8.28c-1.75,0.53-3.74,1.28-4.32,3.01c-0.35,1.05-0.07,2.2,0.21,3.28
				c1.24,4.74,3.45,9.54,4.15,14.36c0.68,2.79,2.95,17.14,7.86,15.27c1.36-2.45,1.46-5.41,2.5-8.02
				C905.03,329.61,906.57,327.95,908.52,326.58z"/>
		</g>
		<polygon class="st4" points="911.43,366.32 896.94,371.39 845.67,429.73 843.25,448.36 870.61,489.6 876.89,473.81 864.75,443 
			881.48,430.17 902.31,377.56 		"/>
		<polygon class="st4" points="943.02,372.67 969.09,342.07 959.37,262.44 971.14,256.68 990.8,337.05 986.64,357.46 957.79,400.92 
					"/>
		<polygon class="st5" points="968.62,257.92 968.32,250.6 959.44,239.8 953.88,245.19 958.07,254.94 955.82,258.44 959.37,262.44 
					"/>
	</g>
	<g>
		<polygon class="st7" points="259.28,354.04 272.44,344.84 270.57,336.45 257.23,341.05 250.79,345.25 250.79,349.9 		"/>
		<g id="XMLID_392_">
			<g id="XMLID_395_">
				<g id="XMLID_405_">
					<g id="XMLID_407_">
						<path class="st3" d="M134.25,708.88c-1.36-1.5-2.94-2.31-4.73-2.03c-1.72,0.27-3.27,1.44-3.98,3
							c-0.48,1.06-0.59,2.25-0.68,3.41c-0.5,6-0.45,20.26,7.55,22.31c3.36,0.86,6.14-4.51,7.04-7.52
							C140.79,723.49,138.79,713.88,134.25,708.88z"/>
					</g>
					<g id="XMLID_406_">
						<path class="st7" d="M137.09,618.32l-0.42,36.62c0.49,16.26-2.05,32.62-1.57,48.88c0.11,3.74,1.09,7.68,0.14,11.39
							c-0.92,3.63-3.87,4.27-6.89,2.43c-4.05-2.46-3.4-8.2-4.07-12.4c-1.85-11.52-4.03-22.98-5.96-34.48
							c-0.95-5.64,1.01-13.54,0.58-19.25l-5.92-30.69L137.09,618.32z"/>
					</g>
				</g>
				<g id="XMLID_404_">
					<polygon class="st6" points="95.26,559.16 111.19,629.95 114.58,696.8 139.85,696.23 146.72,509.24 97.74,510.13 					"/>
				</g>
				<g id="XMLID_399_">
					<g id="XMLID_401_">
						<g id="XMLID_403_">
							<path class="st3" d="M170.39,704.57c-1.42-1.42-3.03-2.14-4.8-1.75c-1.7,0.37-3.19,1.63-3.84,3.23
								c-0.44,1.09-0.49,2.29-0.53,3.45c-0.24,6.04,0.42,20.3,8.47,21.88c3.39,0.66,6.05-1.89,6.82-4.96
								C177.67,721.79,175.13,709.31,170.39,704.57z"/>
						</g>
						<g id="XMLID_402_">
							<path class="st7" d="M157.07,623.46l2.14,36.56c0.18,10.16,1.53,20.24,2.58,30.33c0.98,9.37-0.54,19.14,4.35,27.66
								c1.54,2.67,4.64,4.45,6.81,1.21c1.67-2.5,0.68-6.68,1-9.52c1.31-11.59,2.94-23.14,4.33-34.72c0.68-5.68-1.64-13.48-1.49-19.2
								l4.46-30.93L157.07,623.46z"/>
						</g>
					</g>
					<g id="XMLID_400_">
						<polygon class="st6" points="189.05,554.83 191.11,623.55 180.32,693.04 154.62,693.81 155.75,618.6 142.15,556.23 
							137.59,515.41 178.37,510.6 						"/>
					</g>
				</g>
				<g id="XMLID_398_">
					<polygon class="st2" points="156.79,369.97 112.85,368.92 87.37,416.3 96.43,460.68 98.04,513.79 160.72,514.64 181.34,511.29 
						175.86,454.55 178.73,385.31 					"/>
				</g>
				<g id="XMLID_397_">
					<polygon class="st2" points="111.39,372.19 75.72,426.51 81.08,456.78 136.32,495.05 146.72,485.96 109.79,439.27 
						111.22,409.77 					"/>
				</g>
				<g id="XMLID_396_">
					<polygon class="st2" points="154.13,400.64 196.35,415.87 220.78,409.85 262.99,354.46 248.29,348.06 203.95,386.13 
						163.82,374.11 					"/>
				</g>
			</g>
			<g id="XMLID_394_">
				<polygon class="st8" points="125.85,369.72 139.48,388.98 145.88,388.46 156.57,368.92 				"/>
			</g>
			<g id="XMLID_393_">
				<polygon class="st7" points="136.65,488.27 136.41,495.68 149.49,500.44 157.03,494.73 157.03,486.1 149.75,485.7 149.53,483.8 
					147.14,482.27 				"/>
			</g>
		</g>
		<path class="st7" d="M141.95,331.04c2.85-2.51,6.11-2.97,9.74-3c1.72-0.01,2.29,0.43,3.18,0.28c0.4-0.07,0.86-0.26,1.51-0.67
			c1.3-0.81,2.46-2.93,3.07-4.66c3.37,2.13,5.82,5.98,6.5,11.84c0.73,6.37,0.72,13.1-1.46,19.47c-2.18,6.38-6.85,12.37-12.89,14.74
			c-0.35,0.14-0.7,0.26-1.05,0.37c-2.59,0.85-5.05,1.02-7.33,0.65l-7.62-3.63c-0.38-0.32-0.75-0.66-1.1-1.02
			C131.98,354.58,134.69,337.44,141.95,331.04z"/>
		<path class="st9" d="M78.62,463.79c0.58,3.39,2.32,6.45,4.72,8.94c0.19-1.17,0.39-2.33,0.6-3.48c-0.21,1.15-0.41,2.31-0.6,3.48
			c1.55,1.61,3.37,2.97,5.33,4.02c4.99,2.67,10.78,3.51,16.44,3.5c4.53-0.01,9.13-0.52,13.55,0.45c4.43,0.97,8.81,3.85,9.93,8.24
			c0.62,2.42,0.42,5.47,2.51,6.83c0.98,0.64,2.22,0.69,3.4,0.73c3.58,0.1,7.66,0.01,10.06-2.65c3.73-4.12,1.55-12.37,6.58-14.71
			c1.47-0.69,3.18-0.58,4.78-0.85c6.81-1.15,10.14-8.86,9.49-15.93c-0.14-1.47-0.44-2.91-0.92-4.25
			c-2.81-7.85-9.34-13.68-14.28-20.4c-9.64-13.12-16.16-30.65-10.23-46.18c0.56-1.46,1.18-2.93,1.57-4.44
			c0.21-0.83,0.36-1.67,0.37-2.53c0.09-4.63-3.36-8.45-5.59-12.51c-0.21-0.38-0.4-0.78-0.59-1.2c-0.45-1.02-0.83-2.17-1.14-3.39
			c-0.05-0.18-0.09-0.37-0.13-0.56c-6.84-6.82-9.58-19.49-5.08-28.96c0.26-0.54,0.53-1.07,0.81-1.58c-0.29,0.51-0.56,1.04-0.81,1.58
			c-4.5,9.47-1.76,22.14,5.08,28.96c-2.5-10.85,0.21-27.99,7.46-34.38c2.85-2.51,6.11-2.97,9.74-3c1.72-0.01,2.29,0.43,3.18,0.28
			c0.4-0.07,0.86-0.26,1.51-0.67c1.3-0.81,2.46-2.93,3.07-4.66c3.37,2.13,5.82,5.98,6.5,11.84c0.73,6.37,0.72,13.1-1.46,19.47
			c-2.18,6.38-6.85,12.37-12.89,14.74c-0.35,0.14-0.7,0.26-1.05,0.37c0.3,0.54,0.68,1.09,1.17,1.63c3.31,3.64,8.63,4.49,13.51,5.12
			c0.59,0.08,1.21,0.15,1.77-0.07c0.92-0.36,1.39-1.42,1.39-2.4c0.01-0.98-0.35-1.93-0.62-2.87c-2.84-9.88,2.19-21.17,3.03-31.13
			c0.84-9.94-1.22-20.76-9.19-27.48c-1.35,0.37-2.67,0.88-3.92,1.51c-0.13-0.17-0.25-0.33-0.39-0.49
			c-11.55-13.87-27.86-2.01-36.63,8.58c-7.23,8.73-13.26,18.75-16.02,29.83c-2.59,10.36-3.45,25.59-2.36,36.18
			c0.64,6.18,3.08,12.25,4.38,18.31c0.8,3.77,1.16,7.53,0.36,11.32c-1.67,7.88-7.91,13.66-13.99,19.13
			c-0.55,1.42-1.11,2.86-1.65,4.32c-0.55,1.46-1.09,2.94-1.63,4.45c-0.35,0.97-0.69,1.95-1.01,2.96c0.33-1,0.66-1.99,1.01-2.96
			c0.54-1.5,1.09-2.99,1.63-4.45c0.55-1.46,1.1-2.9,1.65-4.32c-0.84,0.76-1.68,1.51-2.51,2.26
			C83.75,446.49,77.08,454.75,78.62,463.79z M139.35,326.51c0.9-0.6,1.82-1.13,2.76-1.6C141.17,325.38,140.25,325.92,139.35,326.51z
			"/>
	</g>
	<g>
		<rect x="763.7" y="79.88" class="st8" width="185.29" height="144.63"/>
		<g>
			<path class="st3" d="M755.15,156.71l0.88,121.87l177.41-1.28c13.42-0.1,24.21-11.8,24.11-26.14l-0.69-95.9l-100.4,63.6
				L755.15,156.71z"/>
		</g>
		<g>
			<rect x="797.22" y="106.79" class="st1" width="137.16" height="2.95"/>
			<rect x="778.3" y="129.81" class="st1" width="156.08" height="3.06"/>
			<rect x="778.3" y="152.89" class="st1" width="156.08" height="3.06"/>
		</g>
	</g>
	<g>
		<polygon class="st3" points="260.21,245.73 234.66,298.98 234.59,223.64 485.32,67.09 		"/>
		<polygon class="st10" points="234.65,224.21 385.25,146.08 259.49,247.23 234.85,298.14 		"/>
		<polygon class="st6" points="234.66,298.98 259.44,246.55 484.77,67.86 		"/>
		<g>
			<polygon class="st11" points="484.77,67.86 485.32,67.09 482.4,69.35 			"/>
			<polygon class="st8" points="484.77,67.86 482.4,69.35 259.5,246.22 259.24,246.37 331.08,310.9 			"/>
			<polygon class="st8" points="485.32,67.09 172.94,168.85 234.23,223.91 482.4,69.35 			"/>
		</g>
	</g>
	<g>
		<g>
			<polygon class="st3" points="360.66,722.05 359.66,729.86 374.27,736.7 383.09,732.87 376.28,724.06 361.67,714.24 			"/>
			<g>
				<polygon class="st2" points="360.17,719.43 371.44,619.84 357.88,508.34 360.93,484.62 421.5,482.32 423.68,520.92 
					413.51,619.99 375.26,724.52 				"/>
			</g>
			<polygon class="st8" points="427.18,372.13 457.65,380.42 492.88,442.86 476.19,458.31 452.7,430.49 			"/>
			<g>
				<polygon class="st2" points="465.94,493.48 466.1,593.99 445.87,723.37 431.31,723.22 423.3,603.57 404.57,483.82 				"/>
				<polygon class="st3" points="431.33,729.36 447,734.41 454.95,729.6 447.15,721.65 431.41,721.49 				"/>
			</g>
			<g>
				<path class="st8" d="M351.61,527.66c0.14-4.36,0.38-7.99,0.42-9.29c0.31-11.68,1.35-23.34,2.82-34.94
					c1.31-10.4,2.96-36.2,4.74-46.53c1.47-8.53,6.59-29.82,10.29-37.73c9.2-19.68,6.36-21.49,46.76-27.34
					c17.71-2.56,21.89,8.47,36.37,21.16c1.43,1.25,1.35,8.7,1.68,10.68c0.58,3.48,1.21,6.94,1.92,10.4
					c0.56,2.71,1.18,5.42,1.88,8.11l0,0c0,0,12.15,55.3,20.19,67.05c8.04,11.74,24.64,28.16-3.13,38.19
					c-4.92,1.59-9.87,3.11-15,3.91c0,0-22.71-2.52-34.39-2.44c-10.76,0.08-21.56,1.17-32.14,2.99c-7.07,1.18-14.29,2.9-20.62,6.2
					c-6.04,3.15-10.39,7.79-16.52,11.05c-0.58,0.31-1.22,0.63-1.88,0.54C351.48,549.19,351.32,536.83,351.61,527.66z"/>
			</g>
			<g>
				<path class="st5" d="M416.67,377.38c-2.04,1.01-6.85,1.37-11.87-0.6c-1.01-0.4-1.69-1.37-1.68-2.46
					c0.04-3.05,0.29-6.09,0.73-9.11c-3.76-1.32-8.11-3.31-8.77-7.24c-0.21-1.24,0.01-2.51,0.22-3.75
					c0.88-5.12,1.77-10.24,2.65-15.36c0.31-1.77,0.63-3.59,1.59-5.11c1.69-2.66,4.97-3.83,8.08-4.37
					c7.93-1.38,16.57,0.34,22.71,5.53c1.64,1.38,3.12,3.04,3.84,5.06c1.11,3.11,0.28,6.54-0.56,9.73c-0.77,2.95-1.55,5.9-2.32,8.84
					c-0.89,3.39-2.18,7.24-5.44,8.52c-1.73,0.68-3.78,0.48-5.35,1.48C417.74,370.31,418.11,374.43,416.67,377.38z"/>
				<path class="st6" d="M462.43,327.8c0.78-1.28,1.62-2.51,2.56-3.67c2.03-2.51,4.54-4.65,6.17-7.44c1.64-2.78,2.21-6.55,0.25-9.11
					c-1.27-1.65-3.32-2.48-5.32-3.07c-6.58-1.94-13.69-2.07-20.34-0.38c-6.33,1.61-12,4.28-18.38,1.9
					c-5.99-2.24-10.32-1.33-16.58,0.91c-6.78,2.42-15.87,2.99-22.01,6.4c-2.56,1.43-4.61,3.65-6.2,6.11
					c-5.52,8.53-5.55,20.28-0.07,28.83c1.23,1.92,2.7,3.67,4.24,5.35c3.2,3.47,7.02,7.75,11.42,9.03c0.1-3.93-3.48-16.34-0.46-19.56
					c4.79-5.12,15.64-3.33,21.58-2.07c6.49,1.37,12.27,5.97,18.7,6.95c4.63,0.71,10.54-1.56,14.47-3.96
					C457.33,341.08,459.59,332.46,462.43,327.8z"/>
			</g>
			<polygon class="st8" points="383.09,379.39 357.88,401.48 329.76,460.58 365.27,502.83 371.39,479.2 			"/>
		</g>
	</g>
	<g>
		<g>
			<g>
				<polygon class="st3" points="555.84,401.51 244.24,424.97 407.35,510.37 				"/>
				<path class="st3" d="M234.47,432.13l15.11,200.66l292.1-21.99c22.09-1.66,38.56-22.15,36.78-45.77l-11.89-157.91L408.31,523.16
					L234.47,432.13z"/>
				<path class="st12" d="M499.93,405.72c-0.2,2.68-0.21,5.4,0,8.16c0.64,8.5,3.23,16.4,7.3,23.27l48.61-35.64L499.93,405.72z"/>
				<path class="st12" d="M557.5,463.39c4.56-0.34,8.95-1.25,13.1-2.64l-4.04-53.62l-52.89,38.77
					C524.42,457.74,540.32,464.68,557.5,463.39z"/>
			</g>
			
				<ellipse transform="matrix(0.7071 -0.7071 0.7071 0.7071 -118.5627 518.1625)" class="st8" cx="566.2" cy="402.2" rx="53.7" ry="53.7"/>
			<g>
				<polygon class="st0" points="577.37,431.56 564.8,432.31 562.33,390.91 554.47,391.38 553.72,378.81 574.15,377.59 				"/>
			</g>
		</g>
	</g>
	<g>
		<g id="XMLID_372_">
			<g id="XMLID_374_">
				<g id="XMLID_389_">
					<g id="XMLID_391_">
						<path class="st3" d="M755.01,716.62c1.36-1.49,2.94-2.31,4.72-2.02c1.72,0.27,3.26,1.43,3.97,2.99
							c0.48,1.06,0.58,2.24,0.68,3.4c-0.15-1.79,1.09,20.05-7.53,22.26c-3.35,0.86-6.13-1.52-7.02-4.53
							C748.48,734.18,750.47,721.61,755.01,716.62z"/>
					</g>
					<g id="XMLID_390_">
						<path class="st7" d="M752.17,626.26l0.42,36.53c-0.49,16.23,2.05,32.55,1.56,48.77c-0.11,3.73-1.08,7.67-0.14,11.37
							c0.92,3.62,3.86,4.26,6.88,2.43c4.04-2.45,3.39-8.19,4.06-12.37c1.85-11.49,4.02-22.93,5.95-34.41
							c0.95-5.63-1.01-13.51-0.58-19.21c0,0,5.9-30.62,5.9-30.62L752.17,626.26z"/>
					</g>
				</g>
				<g id="XMLID_388_">
					<polygon class="st3" points="793.91,567.23 778.01,637.86 774.63,704.57 749.42,704 742.56,517.42 791.44,518.31 					"/>
				</g>
				<g id="XMLID_383_">
					<g id="XMLID_385_">
						<g id="XMLID_387_">
							<path class="st3" d="M718.94,715.3c1.41-1.41,3.03-2.13,4.79-1.75c1.7,0.37,3.19,1.63,3.83,3.23
								c0.44,1.09,0.49,2.28,0.53,3.44c-0.07-1.86-0.1,20.19-8.45,21.83c-3.38,0.66-6.04-1.89-6.8-4.95
								C711.69,732.48,714.21,720.02,718.94,715.3z"/>
						</g>
						<g id="XMLID_386_">
							<path class="st7" d="M732.23,631.39l-2.14,36.47c-0.17,10.14-1.53,20.19-2.57,30.26c-0.97,9.35,0.54,19.09-4.35,27.6
								c-1.53,2.67-4.63,4.44-6.8,1.2c-1.67-2.5-0.68-6.66-1-9.5c-1.31-11.56-2.93-23.09-4.32-34.65
								c-0.68-5.66,1.64-13.45,1.49-19.16c0,0-4.45-30.86-4.45-30.86L732.23,631.39z"/>
						</g>
					</g>
					<g id="XMLID_384_">
						<polygon class="st3" points="700.33,562.91 698.27,631.48 709.03,700.81 734.68,701.58 733.55,626.54 747.12,564.31 
							751.68,523.58 710.98,518.78 						"/>
					</g>
				</g>
				<g id="XMLID_382_">
					<polygon class="st13" points="732.52,378.46 776.36,377.41 801.78,424.69 792.75,468.97 791.14,521.96 728.6,522.81 
						708.02,519.47 713.48,462.85 710.35,387.22 					"/>
				</g>
				<g id="XMLID_381_">
					<polygon class="st13" points="777.81,380.67 813.4,434.88 808.06,465.08 752.94,503.26 742.56,494.19 779.41,447.61 
						777.98,418.17 					"/>
				</g>
				<g id="XMLID_380_">
					<polygon class="st13" points="730.33,407.1 707.49,452.76 682.87,457.65 621.52,430.86 632.1,418.86 688.05,429.1 
						710.35,387.22 					"/>
				</g>
				<g id="XMLID_375_">
					<g id="XMLID_379_">
						<path class="st7" d="M735.26,341.73c6.61-19.22,31.98-12.01,37.21,5.1c3.41,11.16-5.21,25.64-16.77,28.85
							c-0.05,0.44-0.09,0.85-0.09,1.2c-0.01,1.79-0.23,3.56-0.49,5.35c-0.1,0.67-10.22-1.28-11.35-1.5
							c-0.39-0.08-0.84-0.18-1.05-0.52c-0.41-0.64,0.26-2.51,0.33-3.21c0.09-0.83,0.17-1.67,0.26-2.5
							c-5.7-2.78-9.3-8.71-10.31-14.75C731.99,353.67,733.28,347.5,735.26,341.73z"/>
					</g>
					<g id="XMLID_376_">
						<g id="XMLID_378_">
							<path class="st9" d="M751.81,324.36c1.36,1.38,1.89,3.31,2.29,5.16c0.23,1.1,0.44,2.25,0.2,3.34
								c-0.94,4.36-5.27,4.13-8.61,5.54c-4.13,1.73-7.68,4.93-9.99,8.6c-3.62,5.76-1.99,13.16-0.52,19.51
								c0.52,2.24,1.56,5.56-0.18,7.56c-1.76,2.03-5.84,1.71-7.95,0.67c-1.93-0.95-3.52-2.72-5.63-3.07
								c-2.24-0.38-5.27,0.61-6.32-1.45c-0.29-0.57-0.32-1.27-0.68-1.8c-1.24-1.77-4.32,0.3-6.07-0.95c-1.07-0.77-1.07-2.41-0.7-3.7
								c0.36-1.3,0.97-2.61,0.72-3.93c-0.22-1.13-1.03-2.03-1.54-3.06c-1-2.04-0.65-4.69,0.83-6.41c2.76-3.2,8.11-2.59,11.07-5.6
								c1.54-1.57,2.14-3.83,2.71-5.96c0.57-2.14,1.26-4.39,2.91-5.84c2.04-1.79,4.98-1.49,6.98-3.61c1.18-1.25,1.97-2.87,3.29-3.96
								c1.75-1.43,5.16-2.53,7.33-3.26C745.39,321.01,749.24,321.75,751.81,324.36z"/>
						</g>
						<g id="XMLID_377_">
							<path class="st9" d="M767.86,355.03c0.12,6.32-3.02,13.16-0.11,18.73c2.94,5.62,10.27,6.63,16.52,6.92
								c1.03,0.05,14.21,1.19,14.27,0.94c0.99-4.41,2.01-8.9,4.31-12.77c2.3-3.87,6.15-7.07,10.56-7.35
								c-1.27-0.22-1.91-1.78-1.77-3.09c0.15-1.31,0.83-2.5,1.22-3.76c0.97-3.1,0.03-6.72-2.31-8.9
								c-4.66-4.35-13.12-2.54-17.12-7.53c-2.48-3.1-2.18-7.59-3.48-11.37c-2.51-7.31-10.51-8.84-16.49-12.14
								c-6.31-3.48-12.26-5.39-19.54-4.18c-9.03,1.51-15.75,10.7-12.26,19.35c4.47,11.1,22.33,10.14,25.67,21.41
								C767.68,352.52,767.84,353.76,767.86,355.03z"/>
						</g>
					</g>
				</g>
			</g>
			<g id="XMLID_373_">
				<polygon class="st6" points="763.39,378.21 749.79,397.43 743.4,396.91 732.74,377.41 				"/>
			</g>
		</g>
		<g>
			<g>
				<path class="st0" d="M694.42,522.83c-1.07,0-2.06-0.41-2.78-1.15l-30.98-31.75l-19.24,24.63c-0.68,0.88-1.66,1.36-2.74,1.36
					c-1.68,0-3.4-1.22-4-2.83l-45.62-122.81c-0.55-1.48-0.23-2.94,0.86-3.95c0.66-0.85,1.63-1.34,2.68-1.34
					c0.48,0,0.97,0.1,1.46,0.29l121.63,48.64c1.49,0.6,2.5,1.83,2.69,3.3c0.19,1.45-0.46,2.88-1.74,3.83l-24.66,18.3l30.91,31.69
					c1.52,1.56,1.52,4.14-0.01,5.63l-25.63,25C696.52,522.41,695.48,522.83,694.42,522.83L694.42,522.83z M660.25,479.91
					c1.11,0,2.2,0.44,2.91,1.17l31.37,32.15l19.92-19.43l-31.3-32.09c-0.82-0.84-1.23-1.92-1.14-3.04c0.1-1.2,0.75-2.34,1.8-3.12
					l22.61-16.78L599.7,396.09l40.02,107.75l17.67-22.62C658.04,480.39,659.08,479.91,660.25,479.91z"/>
				<g>
					<path class="st0" d="M723.97,490l-14.96-15.34l-14.75-15.12l10.26-7.62l13.02-9.66c1.72-1.28,2.59-3.23,2.33-5.23
						c-0.26-2.02-1.61-3.7-3.62-4.5L674.9,416l-65.34-26.13l-8.89-3.55l-6.06-2.42c-0.66-0.27-1.34-0.4-2.01-0.4
						c-1.48,0-2.84,0.66-3.79,1.82c-1.46,1.41-1.91,3.48-1.16,5.49l1.64,4.43l13.86,37.32l24.5,65.97l2.83,7.62l2.78,7.47
						c0.82,2.21,3.09,3.81,5.41,3.81c1.56,0,2.95-0.69,3.92-1.94l9.79-12.54l8.39-10.74l11.6,11.89l13.99,14.34l4.19,4.29
						c1.01,1.04,2.38,1.61,3.86,1.61c1.45,0,2.87-0.57,3.9-1.58l12.61-12.31l13.01-12.69C726.08,495.66,726.1,492.18,723.97,490z
						 M721.84,495.61c-8.54,8.33-17.08,16.67-25.62,25c-0.49,0.47-1.15,0.72-1.8,0.72c-0.63,0-1.25-0.23-1.71-0.7
						c-1.4-1.43-2.79-2.86-4.19-4.29c-9.33-9.56-18.66-19.12-27.98-28.69c-6.77,8.66-13.53,17.32-20.3,25.98
						c-0.43,0.55-0.99,0.78-1.56,0.78c-1.09,0-2.22-0.84-2.6-1.85c-1.87-5.03-3.74-10.06-5.61-15.09
						c-8.17-21.99-16.34-43.98-24.5-65.97c-5.17-13.92-10.34-27.83-15.51-41.75c-0.39-1.04-0.06-1.88,0.57-2.41
						c0.36-0.51,0.9-0.86,1.57-0.86c0.28,0,0.58,0.06,0.9,0.19c4.98,1.99,9.97,3.99,14.95,5.98c21.78,8.71,43.56,17.42,65.34,26.13
						c13.78,5.51,27.57,11.02,41.35,16.54c2.05,0.82,2.42,3.19,0.62,4.54c-8.68,6.44-17.36,12.88-26.04,19.32
						c0.73,0.75,1.46,1.49,2.18,2.24c9.98,10.23,19.95,20.45,29.93,30.68C722.75,493.04,722.82,494.66,721.84,495.61z"/>
					<path class="st0" d="M684.21,460.66c-1.21-1.24-0.8-2.95,0.48-3.9c8.26-6.13,16.51-12.26,24.77-18.38
						c-3.53-1.41-7.05-2.82-10.58-4.23c-21.78-8.71-43.56-17.42-65.34-26.13c-12.15-4.86-24.29-9.71-36.44-14.57
						c1.24,3.35,2.49,6.7,3.73,10.05c8.17,21.99,16.34,43.98,24.5,65.97c4.63,12.47,9.27,24.94,13.9,37.41
						c6.44-8.24,12.88-16.49,19.32-24.73c0.4-0.51,1.03-0.73,1.68-0.73c0.69,0,1.39,0.26,1.84,0.71c1.4,1.43,2.79,2.86,4.19,4.29
						c9.41,9.64,18.82,19.29,28.22,28.93c7.36-7.18,14.71-14.35,22.07-21.53c-0.81-0.83-1.62-1.66-2.43-2.49
						C704.16,481.11,694.19,470.88,684.21,460.66z M694.55,511.11l-6.23-6.39l-19.9-20.4l-0.64-0.65l-3.55-3.64
						c-1-1.03-2.45-1.62-3.98-1.62c-1.63,0-3.1,0.69-4.04,1.89l-9.66,12.37l-6.36,8.14l-4.81-12.95l-7.22-19.43l-24.5-65.97
						l-1.38-3.71l30.16,12.06l32.67,13.06l32.67,13.06l5.42,2.17l0.17,0.07l-7.86,5.83l-12.6,9.35c-1.4,1.04-2.27,2.57-2.4,4.2
						c-0.12,1.56,0.43,3.05,1.56,4.21l14.96,15.34l14.96,15.34l0.33,0.34L694.55,511.11z"/>
				</g>
			</g>
			<polygon class="st6" points="592.85,389.08 638.47,511.88 660.34,483.89 694.45,518.86 707.26,506.36 720.08,493.86 
				685.96,458.89 714.49,437.72 			"/>
		</g>
		<g id="XMLID_371_">
			<polygon class="st7" points="730.4,498.96 730.64,506.36 717.58,511.11 710.06,505.41 710.06,496.8 717.32,496.39 717.55,494.5 
				719.93,492.97 			"/>
		</g>
	</g>
	<polygon class="st5" points="334.86,422.04 342.25,412.18 357.23,409.27 365.3,417.32 351.01,432.2 	"/>
	<polygon class="st5" points="454.14,407.78 461.52,397.93 476.51,395.02 484.58,403.07 470.29,417.95 	"/>
</g>
</svg>
